<svg width="24" height="33" viewBox="0 0 24 33" fill="none" xmlns="http://www.w3.org/2000/svg">
<path d="M14.25 0C14.25 0 15.36 4.09986 15.36 7.42616C15.36 10.6132 13.335 13.1969 10.245 13.1969C7.14 13.1969 4.8 10.6132 4.8 7.42616L4.845 6.8692C1.815 10.5823 0 15.3938 0 20.6231C0 27.4613 5.37 33 12 33C18.63 33 24 27.4613 24 20.6231C24 12.2841 20.115 4.84248 14.25 0ZM11.565 28.3587C8.895 28.3587 6.735 26.1927 6.735 23.5007C6.735 20.9944 8.31 19.2307 10.95 18.6737C13.605 18.1167 16.35 16.8017 17.88 14.6821C18.465 16.6779 18.765 18.782 18.765 20.9325C18.765 25.0323 15.54 28.3587 11.565 28.3587Z" fill="black"/>
</svg>