<svg width="34" height="22" viewBox="0 0 34 22" fill="none" xmlns="http://www.w3.org/2000/svg">
<path d="M23.1818 9.42857C25.7473 9.42857 27.8027 7.32286 27.8027 4.71429C27.8027 2.10571 25.7473 0 23.1818 0C20.6164 0 18.5455 2.10571 18.5455 4.71429C18.5455 7.32286 20.6164 9.42857 23.1818 9.42857ZM10.8182 9.42857C13.3836 9.42857 15.4391 7.32286 15.4391 4.71429C15.4391 2.10571 13.3836 0 10.8182 0C8.25273 0 6.18182 2.10571 6.18182 4.71429C6.18182 7.32286 8.25273 9.42857 10.8182 9.42857ZM10.8182 12.5714C7.21727 12.5714 0 14.41 0 18.0714V22H21.6364V18.0714C21.6364 14.41 14.4191 12.5714 10.8182 12.5714ZM23.1818 12.5714C22.7336 12.5714 22.2236 12.6029 21.6827 12.65C23.4755 13.97 24.7273 15.7457 24.7273 18.0714V22H34V18.0714C34 14.41 26.7827 12.5714 23.1818 12.5714Z" fill="black"/>
</svg>