<svg width="300" height="300" viewBox="0 0 300 300" fill="none" xmlns="http://www.w3.org/2000/svg">
<g filter="url(#filter0_d_77:746)">
<g clip-path="url(#clip0_77:746)">
<rect x="16" y="16" width="262.474" height="262.474" rx="131.237" fill="#4BB4AD"/>
<path d="M162.746 179.968V180.314H131.167V179.968H162.746Z" fill="black"/>
<path d="M213.686 248.775C219.085 245.238 226.329 246.747 229.867 252.146C237.174 263.299 241.562 280.751 243.317 301.338C244.831 319.096 244.146 337.701 241.533 350.222C240.215 356.54 234.024 360.594 227.705 359.275C221.387 357.956 217.333 351.765 218.652 345.447C220.758 335.354 221.362 318.969 220.028 303.324C218.588 286.437 215.092 272.422 210.456 265.173L210.315 264.956C206.778 259.557 208.287 252.313 213.686 248.775Z" fill="#EBBAAA"/>
<path d="M109.586 222.767C113.914 217.978 121.304 217.606 126.093 221.934C130.881 226.262 131.254 233.653 126.925 238.441C88.4238 281.033 78.9048 312.196 96.1711 350.191C98.8415 356.068 96.2426 362.996 90.3663 365.666C84.49 368.337 77.5615 365.738 74.8911 359.862C63.4844 334.761 61.6147 311.035 68.8107 287.476C75.1863 266.604 88.4396 246.159 109.586 222.767Z" fill="#EBBAAA"/>
<path fill-rule="evenodd" clip-rule="evenodd" d="M133.249 209.322C105.549 209.322 84.9009 234.861 90.7018 261.947L96.502 289.029C97.1435 292.024 97.4668 295.079 97.4668 298.142L97.4661 371.373C97.4661 373.631 99.5058 375.358 101.74 375.033C112.452 373.477 141.978 370.244 175.14 375.724C204.339 380.548 210.28 378.619 211.217 377.027C211.503 376.541 211.392 375.954 211.28 375.363C211.214 375.014 211.147 374.664 211.162 374.332L215.115 284.224L231.89 264.047L215.634 244.385C211.715 224.481 194.162 209.322 172.938 209.322H133.249Z" fill="#191919"/>
<path opacity="0.1" fill-rule="evenodd" clip-rule="evenodd" d="M147.628 306.727C132.459 306.727 120.118 294.386 120.118 279.217C120.118 264.048 132.459 251.707 147.628 251.707C162.798 251.707 175.138 264.048 175.138 279.217C175.138 294.386 162.798 306.727 147.628 306.727ZM146.807 275.409L146.899 275.367L146.917 275.394C146.991 275.506 147.08 275.652 147.181 275.83L147.28 276.005C147.562 276.514 147.924 277.223 148.363 278.13L148.496 278.409L148.478 278.415C143.888 280.006 139.814 282.642 136.257 286.006L136.004 286.248C133.905 288.266 132.201 290.328 130.89 292.23L130.699 292.51L130.551 292.319C127.753 288.676 126.162 284.242 126.057 279.565L126.055 279.431L127.494 279.268C137.043 278.159 143.468 276.879 146.807 275.409ZM151.51 283.712C154.354 291.292 155.652 297.678 156.079 300.083C153.518 301.121 150.723 301.692 147.797 301.692C142.817 301.692 138.215 300.037 134.503 297.245C135.562 295.302 140.269 287.785 151.51 283.712ZM160.91 297.377C160.466 295.029 159.251 289.349 156.798 282.534C162.794 281.736 168.064 282.983 169.744 283.45C168.69 289.137 165.446 294.077 160.91 297.377ZM125.872 274.003C128.385 273.984 136.49 273.732 145.65 271.417C142.327 265.65 138.867 260.776 137.767 259.259C131.884 262.161 127.453 267.538 125.872 274.003ZM151.073 269.688C147.895 263.917 144.493 259.061 143.133 257.183C144.573 256.894 146.061 256.742 147.585 256.742C153.147 256.742 158.246 258.759 162.192 262.1C161.166 263.385 157.799 267.059 151.073 269.688ZM155.156 277.663C161.626 276.928 167.958 277.921 170.103 278.318C169.912 273.596 168.238 269.251 165.534 265.732C164.246 267.263 160.5 271.148 153.562 274.096C154.002 275.014 154.426 275.944 154.826 276.879C154.938 277.141 155.048 277.403 155.156 277.663Z" fill="white"/>
<mask id="mask0_77:746" style="mask-type:alpha" maskUnits="userSpaceOnUse" x="86" y="207" width="115" height="56">
<path fill-rule="evenodd" clip-rule="evenodd" d="M87.4572 253.54C83.2507 230.365 100.814 208.941 124.364 208.52L166.15 207.774C167.316 207.753 168.48 207.872 169.618 208.127C173.77 209.057 177.314 211.744 179.33 215.491L199.754 253.46C200.802 255.408 199.854 257.8 197.72 258.378C188.405 260.902 164.678 265.822 144.934 257.172C124.814 248.357 100.559 253.634 91.6327 256.107C89.7641 256.625 87.8035 255.447 87.4572 253.54Z" fill="white"/>
</mask>
<g mask="url(#mask0_77:746)">
<path d="M173.777 211.445C173.777 220.963 161.51 228.68 146.377 228.68C131.245 228.68 118.978 220.963 118.978 211.445C118.978 210.219 123.228 210.415 123.615 209.261C126.233 201.459 133.195 194.21 146.377 194.21C161.51 194.21 173.777 201.926 173.777 211.445Z" fill="#EBBAAA"/>
</g>
<rect x="130.399" y="184.643" width="32.9884" height="38.6012" fill="#EBBAAA"/>
<path d="M66.9181 264.433L71.8049 254.764L80.0428 247.56L110.816 270.645C110.816 270.645 99.2639 278.536 95.9793 283.333C90.681 291.068 94.2484 287.975 92.4843 293.869C90.7202 299.764 89.7205 309.535 89.7205 309.535C87.4649 312.188 83.427 312.567 80.0428 313.353C76.6586 314.139 70.5298 314.053 61.0814 314.053C60.5343 305.115 58.6915 297.958 60.5343 286.715C62.6506 273.802 66.9181 264.433 66.9181 264.433Z" fill="black"/>
<path d="M238.413 264.949H235.73L238.413 261.181L229.705 254.732L194.894 274.753C194.894 274.753 208.349 277.535 211.821 281.829C214.313 284.909 216.307 295.32 216.976 299.301C216.965 299.276 217.001 299.535 217.101 300.173C217.298 301.439 217.24 300.868 216.976 299.301C217.045 299.452 218.838 309.93 218.838 309.93C222.16 312.614 227.775 314.464 236.915 315.064C246.054 315.665 246.408 311.257 246.408 311.257C246.408 311.257 248.119 297.82 246.407 290.724C244.696 283.627 243.645 277.145 241.487 271.561C239.329 265.978 238.413 264.949 238.413 264.949Z" fill="black"/>
<path d="M161.408 223.412L170.398 215.501V208.668C170.398 208.668 183.254 209.028 192.333 210.826C201.413 212.624 214.639 227.367 214.639 227.367C214.639 227.367 215.209 272.564 215.209 295.269C215.209 321.889 214.639 375.343 214.639 375.343C214.639 375.343 208.971 379.987 199.615 379.987C190.259 379.987 170.398 378.787 170.398 378.787L161.408 223.412Z" fill="#5C625B"/>
<path d="M164.642 223.329L173.632 378.704L170.76 378.87L161.77 223.495L164.642 223.329Z" fill="#6C726B"/>
<path d="M248.431 266.564L214.639 227.367L203.481 250.022L209.954 292.096L248.431 266.564Z" fill="#5C625B"/>
<path d="M167.701 212.447C168.482 210.979 166.944 207.476 166.944 207.476C166.944 207.476 170.16 207.558 171.693 207.772C173.006 207.955 175.483 208.668 175.483 208.668C177.151 209.323 177.78 211.024 177.78 215.339C177.78 219.654 171.693 221.254 168.476 237.415L159.61 221.254C159.61 221.254 166.919 213.916 167.701 212.447Z" fill="#6C7A6A"/>
<path d="M145.632 222.266L126.167 219.457L122.931 208.668C122.931 208.668 123.869 209.683 114.79 211.481C105.71 213.279 92.4844 228.023 92.4844 228.023V375.998C92.4844 375.998 98.1525 380.642 107.508 380.642C116.864 380.642 134.797 390.987 134.797 390.987C134.797 390.987 133.359 303.093 134.797 277.561C136.236 252.029 145.632 222.266 145.632 222.266Z" fill="#5C625B"/>
<path d="M97.1692 292.751L58.6915 267.219C58.6915 267.219 63.9388 256.599 77.1566 239.465C90.3744 222.33 110.049 213.275 110.049 213.275L103.642 250.677L97.1692 292.751Z" fill="#5C625B"/>
<path d="M129.057 213.879C128.446 211.902 130.399 208.267 130.399 208.267C130.399 208.267 125.47 207.823 123.204 208.267C121.69 208.564 119.058 210.491 119.058 210.491C117.681 212.547 116.879 214.465 118.256 220.378C119.632 226.291 129.057 227.083 135.779 239.465L145.662 222.182C145.662 222.182 139.224 220.565 135.779 219.12C132.334 217.675 129.667 215.856 129.057 213.879Z" fill="#6C7A6A"/>
<path d="M175.13 253.001L203.026 251.732L203.051 277.385L178.376 277.104L175.13 253.001Z" fill="#6C7A6A"/>
<path d="M197.964 111.813C196.935 91.6799 176.876 69.1855 143.952 69.1857C123.116 69.1857 102.278 88.8041 99.7051 107.629C97.1328 126.455 97.1335 158.876 101.505 175.61C105.781 191.979 130.768 209.37 137.2 210.416C143.632 211.462 155.072 212.44 161.73 210.416C168.389 208.393 191.857 194.542 195.51 175.61C199.164 156.677 198.993 131.945 197.964 111.813Z" fill="#F4D6CD"/>
<path d="M117.737 110.56C120.373 110.09 126.752 111.299 137.907 114.202C139.408 114.592 140.308 116.125 139.917 117.626C139.527 119.126 137.994 120.026 136.493 119.636L135.013 119.254C125.819 116.903 120.095 115.843 118.724 116.088C117.154 116.368 115.036 117.398 112.451 119.215C111.183 120.107 109.431 119.802 108.54 118.534C107.648 117.265 107.953 115.514 109.221 114.622C112.418 112.374 115.229 111.008 117.737 110.56Z" fill="#6F6C6C"/>
<path d="M156.879 115.151L158.33 114.849C169.736 112.491 176.403 111.495 179.047 111.848C181.769 112.212 184.794 113.443 188.173 115.502C189.497 116.309 189.917 118.036 189.11 119.36C188.303 120.684 186.575 121.104 185.251 120.297C182.483 118.61 180.15 117.661 178.302 117.414C176.487 117.171 169.46 118.254 158.03 120.647C156.512 120.965 155.024 119.992 154.707 118.475C154.389 116.957 155.361 115.469 156.879 115.151Z" fill="#6F6C6C"/>
<path d="M144.119 127.644L150.214 128.248L150.19 128.476C150.061 129.641 149.787 131.152 149.337 133.296L149.026 134.744C148.605 136.676 147.834 140.166 147.663 140.955L147.446 141.963C147.166 143.275 146.922 144.459 146.699 145.597L146.585 146.187C145.611 151.255 145.127 155.126 145.193 157.908C145.224 159.241 145.387 160.217 145.617 160.76L145.641 160.815L154.948 160.815V166.94H145.403C143.079 166.94 141.24 165.694 140.202 163.634C139.459 162.162 139.123 160.316 139.069 158.053C138.988 154.605 139.559 150.183 140.689 144.419L140.865 143.53C141.046 142.63 141.24 141.695 141.455 140.689L141.871 138.77C142.229 137.142 142.905 134.077 143.184 132.785L143.379 131.866C143.766 130.01 144 128.71 144.1 127.822L144.119 127.644Z" fill="#EBBAAA"/>
<path d="M140.928 60.4958C140.737 57.772 144.488 52.558 161.025 53.4919C181.695 54.6593 206.385 79.1722 210.404 94.9304C205.617 96.1131 211.413 100.08 212.585 104.174C214.699 111.553 214.639 120.406 214.639 127.914C214.639 153.594 203.435 161.491 202.165 164.258C199.681 169.667 196.838 165.633 197.346 161.062C197.854 156.491 198.938 151.295 198.938 151.295C199.059 150.372 199.271 141.76 198.357 130.291C197.563 120.313 198.305 115.919 197.272 114.939C197.272 114.939 183.619 109.78 170.357 99.0476C157.095 88.3154 149.407 76.9013 145.633 72.3135C141.858 67.7257 141.12 63.2195 140.928 60.4958Z" fill="black"/>
<path d="M172.887 93.0424C165.481 88.9773 150.466 74.3901 146.256 70.4992C151.998 70.4992 174.804 66.9154 185.714 86.7592C196.623 106.603 211.552 118.859 202.365 117.108C195.016 115.708 180.294 97.1077 172.887 93.0424Z" fill="black"/>
<path fill-rule="evenodd" clip-rule="evenodd" d="M197.346 161.062C197.841 151.102 198.357 141.597 198.357 129.65C204.362 132.413 208.386 138.423 208.386 145.379C208.386 151.345 203.241 157.403 197.346 161.062Z" fill="#EBBAAA"/>
<path fill-rule="evenodd" clip-rule="evenodd" d="M99.0893 160.979C98.3536 152.172 98.3252 141.326 98.6625 129.659C92.6574 132.423 88.4969 138.423 88.4969 145.379C88.4969 151.345 93.195 157.32 99.0893 160.979Z" fill="#EBBAAA"/>
<path d="M130.828 54.4555C145.169 53.5216 148.422 58.7356 148.256 61.4593C163.91 74.2949 152.183 77.0813 146.256 79.8447C140.329 82.6081 132.393 83.2194 121.809 90.4162C111.226 97.6129 99.7274 112.919 99.0894 123.11C98.4514 133.3 100.683 170.559 99.0894 163.555C97.0979 154.8 95.3783 145.179 93.4808 141.418C89.1917 132.915 89.1917 149.965 86.8294 136.327C85.5776 129.099 82.3727 112.517 84.2061 105.137C85.2232 101.043 90.2496 97.0768 86.0981 95.894C89.5838 80.1357 112.901 55.6229 130.828 54.4555Z" fill="black"/>
<path d="M122.094 128.33C125.836 128.004 129.657 128.633 133.29 130.411C134.683 131.092 135.259 132.774 134.578 134.167C133.896 135.559 132.214 136.136 130.822 135.454C128.145 134.144 125.344 133.683 122.582 133.924C120.543 134.102 118.651 134.669 117.489 135.305L117.379 135.367C116.034 136.139 114.318 135.676 113.546 134.331C112.773 132.987 113.237 131.27 114.582 130.498C116.451 129.424 119.187 128.583 122.094 128.33Z" fill="black"/>
<path d="M171.452 128.33C175.194 128.004 179.015 128.633 182.648 130.411C184.041 131.092 184.617 132.774 183.936 134.167C183.254 135.559 181.572 136.136 180.18 135.454C177.502 134.144 174.702 133.683 171.94 133.924C169.901 134.102 168.009 134.669 166.847 135.305L166.737 135.367C165.393 136.139 163.676 135.676 162.904 134.331C162.131 132.987 162.595 131.271 163.94 130.498C165.808 129.424 168.545 128.583 171.452 128.33Z" fill="black"/>
<path fill-rule="evenodd" clip-rule="evenodd" d="M127.239 174.509V178.865C127.239 185.571 136.874 191.006 148.754 191.006C160.639 191.006 170.27 185.571 170.27 178.865V174.509H127.239Z" fill="#393939"/>
<mask id="mask1_77:746" style="mask-type:alpha" maskUnits="userSpaceOnUse" x="127" y="174" width="44" height="18">
<path fill-rule="evenodd" clip-rule="evenodd" d="M127.275 174.507C127.251 174.732 127.239 174.959 127.239 175.185V179.428C127.239 185.825 136.874 191.009 148.754 191.009C160.639 191.009 170.27 185.825 170.27 179.428V175.185C170.27 174.959 170.258 174.732 170.235 174.507H127.275Z" fill="white"/>
</mask>
<g mask="url(#mask1_77:746)">
<path d="M148.755 194.902C155.921 194.902 161.73 193.117 161.73 190.916C161.73 188.716 155.921 186.931 148.755 186.931C141.589 186.931 135.78 188.716 135.78 190.916C135.78 193.117 141.589 194.902 148.755 194.902Z" fill="#FF6C6C"/>
</g>
<rect x="127.239" y="174.509" width="43.0315" height="5.00481" fill="white"/>
</g>
<rect x="16" y="16" width="262.474" height="262.474" rx="131.237" stroke="white" stroke-width="11.0682"/>
</g>
<defs>
<filter id="filter0_d_77:746" x="0.978944" y="0.978944" width="298.84" height="298.84" filterUnits="userSpaceOnUse" color-interpolation-filters="sRGB">
<feFlood flood-opacity="0" result="BackgroundImageFix"/>
<feColorMatrix in="SourceAlpha" type="matrix" values="0 0 0 0 0 0 0 0 0 0 0 0 0 0 0 0 0 0 127 0" result="hardAlpha"/>
<feMorphology radius="3.16233" operator="erode" in="SourceAlpha" result="effect1_dropShadow_77:746"/>
<feOffset dx="3.16233" dy="3.16233"/>
<feGaussianBlur stdDeviation="7.90583"/>
<feComposite in2="hardAlpha" operator="out"/>
<feColorMatrix type="matrix" values="0 0 0 0 0 0 0 0 0 0 0 0 0 0 0 0 0 0 0.25 0"/>
<feBlend mode="normal" in2="BackgroundImageFix" result="effect1_dropShadow_77:746"/>
<feBlend mode="normal" in="SourceGraphic" in2="effect1_dropShadow_77:746" result="shape"/>
</filter>
<clipPath id="clip0_77:746">
<rect x="16" y="16" width="262.474" height="262.474" rx="131.237" fill="white"/>
</clipPath>
</defs>
</svg>