<svg width="298" height="298" viewBox="0 0 298 298" fill="none" xmlns="http://www.w3.org/2000/svg">
<g filter="url(#filter0_d_77:894)">
<g clip-path="url(#clip0_77:894)">
<rect x="14.7883" y="15" width="262.474" height="262.474" rx="131.237" fill="#F4D0C2"/>
<rect x="96.702" y="160.737" width="98.4093" height="46.4199" rx="23.2099" fill="#23180D"/>
<path d="M100.434 215.623C100.452 198.287 114.522 184.269 131.857 184.269H165.79C182.171 184.269 195.82 196.833 196.816 213.184C197.624 226.444 198.364 241.703 198.364 253.064C198.364 267.466 197.173 288.046 196.165 302.89C195.447 313.471 186.621 321.594 176.016 321.594H122.911C112.365 321.594 103.566 313.548 102.786 303.032C101.766 289.294 100.586 270.721 100.498 257.351C100.425 246.39 100.42 230.065 100.434 215.623Z" fill="#26282C"/>
<path d="M149.692 211.025C160.492 211.025 169.247 201.932 169.247 190.716C169.247 179.5 160.492 170.408 149.692 170.408C138.891 170.408 130.136 179.5 130.136 190.716C130.136 201.932 138.891 211.025 149.692 211.025Z" fill="#26282C"/>
<rect x="137.645" y="163.966" width="24.2417" height="37.1633" rx="12.1208" fill="#EED1C9"/>
<path d="M121.62 197.164C125.909 204.127 133.921 210.026 144.645 210.026C144.645 201.752 138.967 192.65 132.344 182.98C129.594 178.966 127.297 174.598 121.62 174.598C119.832 179.219 117.33 190.201 121.62 197.164Z" fill="#5F646C"/>
<path d="M176.502 197.164C172.212 204.127 164.2 210.332 153.476 210.332C153.476 202.058 159.154 192.65 165.777 182.98C168.527 178.966 170.824 174.598 176.502 174.598C178.289 179.219 180.791 190.201 176.502 197.164Z" fill="#5F646C"/>
<path d="M111.825 196.406C115.54 190.241 123.55 188.254 129.715 191.969C135.881 195.684 137.867 203.693 134.152 209.859L133.61 210.755C132.764 212.148 131.846 213.634 130.769 215.357L128.888 218.353C127.712 220.218 125.222 224.162 124.403 225.467L123.162 227.449C122.824 227.991 122.499 228.514 122.182 229.026L121.275 230.496C118.378 235.208 116.132 239.055 114.338 242.425L114.041 242.985L113.846 243.515C106.624 263.257 104.164 290.753 106.817 315.691L106.9 316.462C107.694 323.616 102.537 330.059 95.3826 330.852C88.2283 331.645 81.7858 326.488 80.9927 319.334C77.7539 290.117 80.6302 257.892 89.6725 233.732L89.9484 233.002L90.5475 231.665L90.8014 231.176C93.1475 226.684 96.0228 221.764 99.8161 215.632L100.697 214.213C101.04 213.662 101.393 213.096 101.762 212.508L107.363 203.618C109.234 200.644 110.612 198.421 111.825 196.406Z" fill="#EBBAAA"/>
<path d="M90.6416 214.113C93.4856 199.69 107.416 190.645 121.748 193.917C136.072 197.187 145.372 211.522 142.519 225.936L128.772 295.39C126.257 308.099 113.33 315.489 101.047 311.238L99.3065 310.636C97.0004 309.837 94.5486 309.632 92.1754 310.038C82.0802 311.765 73.2076 302.528 75.2095 292.376L90.6416 214.113Z" fill="#C8C0A8"/>
<path d="M103.439 210.435C103.439 196.535 114.707 185.267 128.606 185.267H130.867C131.89 185.267 132.858 185.726 133.505 186.518C141.596 196.415 146.015 208.805 146.015 221.588V252.759V324.605C146.015 326.369 144.5 327.751 142.744 327.589L106.159 324.206C104.618 324.064 103.439 322.77 103.439 321.223V245.882V210.435Z" fill="#D9D1BA"/>
<path d="M118.055 194.805C129.333 202.981 140.189 214.185 145.828 236.442C145.828 233.84 145.828 221.907 145.828 216.608C145.828 208.28 138.215 186.024 131.448 186.024C128.347 188.901 124.117 191.626 118.055 194.805Z" fill="#C2BAA1"/>
<path d="M137.839 278.1C137.839 277.485 137.374 276.97 136.763 276.907L109.784 274.123C109.09 274.052 108.482 274.586 108.463 275.284L107.417 314.922C107.4 315.568 107.898 316.112 108.543 316.15L136.568 317.822C137.257 317.863 137.839 317.316 137.839 316.626V278.1Z" fill="#C2BAA1"/>
<path d="M172.725 191.969C178.89 188.254 186.899 190.241 190.614 196.406L191.219 197.405C191.978 198.652 192.813 200.003 193.794 201.573L200.113 211.607L201.042 213.089C201.281 213.472 201.514 213.846 201.743 214.213L202.416 215.297C206.382 221.698 209.354 226.781 211.766 231.421L211.892 231.665L212.491 233.002C221.751 257.24 224.719 289.821 221.447 319.334C220.654 326.488 214.211 331.645 207.057 330.852C199.903 330.059 194.746 323.616 195.539 316.462C198.326 291.32 195.89 263.461 188.594 243.515L188.397 242.984L188.319 242.835C186.455 239.3 184.089 235.244 180.987 230.206L180.258 229.026C179.888 228.429 179.507 227.816 179.107 227.176L176.667 223.292C175.275 221.083 173.435 218.169 173.012 217.497L171.67 215.357C170.36 213.26 169.284 211.512 168.287 209.859C164.573 203.693 166.559 195.684 172.725 191.969Z" fill="#EBBAAA"/>
<path d="M211.798 214.113C208.954 199.69 195.024 190.645 180.692 193.917C166.368 197.187 157.068 211.522 159.921 225.936L173.668 295.39C176.183 308.099 189.11 315.489 201.392 311.238L203.133 310.636C205.439 309.837 207.891 309.632 210.264 310.038C220.36 311.765 229.232 302.528 227.23 292.376L211.798 214.113Z" fill="#C8C0A8"/>
<path d="M199.001 210.435C199.001 196.535 187.733 185.267 173.834 185.267H171.573C170.55 185.267 169.582 185.726 168.935 186.518C160.844 196.415 156.425 208.805 156.425 221.588V252.759V324.605C156.425 326.369 157.94 327.751 159.696 327.589L196.281 324.206C197.822 324.064 199.001 322.77 199.001 321.223V245.882V210.435Z" fill="#D9D1BA"/>
<path d="M184.386 194.805C173.107 202.981 162.251 214.185 156.612 236.442C156.612 233.84 156.612 221.907 156.612 216.608C156.612 208.28 164.225 186.024 170.992 186.024C174.094 188.901 178.323 191.626 184.386 194.805Z" fill="#C2BAA1"/>
<path d="M164.601 278.1C164.601 277.485 165.066 276.97 165.677 276.907L192.655 274.123C193.35 274.052 193.958 274.586 193.976 275.284L195.023 314.922C195.04 315.568 194.541 316.112 193.896 316.15L165.871 317.822C165.183 317.863 164.601 317.316 164.601 316.626V278.1Z" fill="#C2BAA1"/>
<path d="M190.215 110.508C184.914 87.9041 162.053 76.2897 153.192 73.5137C149.146 65.7807 149.724 49.7571 156.081 48.5303C165.328 46.7457 190.172 58.0478 201.152 80.0572C214.958 107.728 212.378 181.259 209.045 205.648C194.214 199.207 196.761 193.364 180.135 186.766C187.106 155.24 190.215 130.138 190.215 130.138C190.215 130.138 193.144 123 190.215 110.508Z" fill="#342B22"/>
<path d="M103.503 100.283C103.503 76.3648 123.559 56.975 148.3 56.975C173.04 56.975 193.096 76.3648 193.096 100.283V143.359C189.483 171.3 167.808 186.667 148.3 186.667C128.791 186.667 106.153 168.04 103.503 143.359V100.283Z" fill="#F6DDD6"/>
<path fill-rule="evenodd" clip-rule="evenodd" d="M136.373 153.201V158.199C136.373 165.287 142.119 171.032 149.206 171.032C156.294 171.032 162.039 165.287 162.039 158.199V153.201H136.373Z" fill="#393939"/>
<mask id="mask0_77:894" style="mask-type:alpha" maskUnits="userSpaceOnUse" x="136" y="152" width="27" height="20">
<path fill-rule="evenodd" clip-rule="evenodd" d="M136.382 152.333C136.376 152.491 136.373 152.65 136.373 152.81V158.199C136.373 165.287 142.119 171.032 149.206 171.032C156.294 171.032 162.04 165.287 162.04 158.199V152.81C162.04 152.65 162.037 152.491 162.031 152.333H136.382Z" fill="white"/>
</mask>
<g mask="url(#mask0_77:894)">
<path d="M149.206 175.24C153.48 175.24 156.945 173.311 156.945 170.932C156.945 168.553 153.48 166.624 149.206 166.624C144.932 166.624 141.467 168.553 141.467 170.932C141.467 173.311 144.932 175.24 149.206 175.24Z" fill="#FF6C6C"/>
<rect x="136.373" y="153.201" width="25.6661" height="5.40954" fill="white"/>
</g>
<path d="M150.436 49.1147C160.887 44.2002 187.905 56.5621 200.131 81.085C200.131 81.085 206.758 95.8797 208.382 106.105C209.984 116.193 204.731 121.296 204.731 121.296L193.363 130.927C193.363 130.927 184.369 100.976 173.315 91.5143C162.262 82.0531 152.838 79.3263 149.95 77.2412C147.063 75.1562 146.723 57.1569 150.436 49.1147Z" fill="#342B22"/>
<path d="M128.002 109.073C130.956 108.925 133.393 109.237 135.336 109.861C135.925 110.05 136.431 110.257 136.857 110.47C137.14 110.611 137.346 110.734 137.48 110.826C138.263 111.369 138.458 112.444 137.915 113.227C137.386 113.99 136.352 114.195 135.575 113.703L135.514 113.663C135.384 113.573 134.981 113.371 134.281 113.146C132.738 112.651 130.717 112.392 128.174 112.519C125.953 112.63 124.168 112.982 122.775 113.49C122.209 113.696 121.759 113.91 121.414 114.115C121.349 114.154 121.293 114.189 121.245 114.221L121.142 114.292C121.143 114.291 121.148 114.288 121.155 114.281C120.436 114.907 119.346 114.832 118.721 114.113C118.095 113.394 118.17 112.305 118.889 111.679C119.046 111.542 119.297 111.36 119.649 111.15C120.179 110.835 120.825 110.528 121.593 110.248C123.316 109.619 125.442 109.2 128.002 109.073Z" fill="#23180D"/>
<path d="M118.197 110.905C121.773 94.8277 139.587 79.4452 148.021 76.6666C151.5 75.5206 153.827 48.051 148.021 48.051C133.325 48.051 110.013 63.1602 101.694 76.6666C88.0332 98.8462 83.202 123.712 90.4738 179.679C92.2532 193.374 93.8689 214.513 98.4698 225.853C107.096 217.037 124.494 214.513 124.494 214.513C124.494 214.513 129.757 207.825 126.173 194.565C119.701 170.618 114.621 126.982 118.197 110.905Z" fill="#342B22"/>
<path d="M98.8734 199.214C102.617 190.51 100.433 171.811 98.8734 163.549C110.312 175.438 130.536 200.544 119.93 205.864C109.324 211.184 111.351 229.44 113.691 237.903C111.091 237.298 104.488 234.034 98.8734 225.813C91.8545 215.536 94.1941 210.096 98.8734 199.214Z" fill="#342B22"/>
<path d="M118.115 196.546C108.964 192.322 105.716 189.607 100.698 182.064C99.7136 186.69 100.107 201.494 102.469 209.218C104.831 216.942 109.393 230.849 120.611 230.849C120.611 230.849 117.659 224.246 120.611 218.212C123.563 212.178 124.3 199.401 118.115 196.546Z" fill="#342B22"/>
<path d="M105.554 77.5276C106.031 76.893 106.932 76.7656 107.567 77.2429C108.202 77.7202 108.329 78.6216 107.852 79.2562C104.825 83.2799 101.151 90.8143 98.3195 99.1553C94.9637 109.041 93.0144 119.215 93.0144 128.364C93.0144 129.158 92.3707 129.802 91.5766 129.802C90.7826 129.802 90.1389 129.158 90.1389 128.364C90.1389 118.872 92.1462 108.396 95.5966 98.231L95.7883 97.6708C98.6834 89.2859 102.392 81.7311 105.554 77.5276Z" fill="#65513D"/>
<path d="M106.226 91.5802C106.499 90.8347 107.325 90.4519 108.071 90.7253C108.816 90.9987 109.199 91.8247 108.926 92.5702L107.844 95.5276C104.85 103.752 104 106.456 102.569 112.063C102.373 112.832 101.59 113.297 100.821 113.101C100.051 112.904 99.5868 112.121 99.783 111.352L100.067 110.246C101.521 104.651 102.537 101.639 106.226 91.5802Z" fill="#65513D"/>
<path d="M132.629 123.378C133.413 123.251 134.151 123.784 134.278 124.568C134.401 125.33 133.9 126.05 133.151 126.205L133.088 126.216L125.342 127.468C124.558 127.594 123.82 127.062 123.693 126.278C123.57 125.515 124.071 124.796 124.82 124.641L124.883 124.629L132.629 123.378Z" fill="black"/>
<path d="M161.222 124.7C161.345 123.937 162.047 123.412 162.807 123.501L162.87 123.51L170.616 124.761C171.4 124.888 171.933 125.626 171.806 126.41C171.683 127.173 170.981 127.698 170.221 127.609L170.157 127.6L162.412 126.348C161.628 126.222 161.095 125.484 161.222 124.7Z" fill="black"/>
<path d="M131.391 121.346C133.268 121.346 134.794 122.844 134.841 124.709L134.842 124.797L134.842 133.254C134.842 135.16 133.297 136.705 131.391 136.705C129.514 136.705 127.988 135.207 127.941 133.342L127.94 133.254L127.941 124.797C127.941 122.891 129.486 121.346 131.391 121.346Z" fill="black"/>
<path d="M164.423 121.478C166.299 121.478 167.826 122.976 167.872 124.841L167.873 124.929L167.873 133.387C167.873 135.292 166.328 136.837 164.422 136.837C162.546 136.837 161.019 135.339 160.973 133.474L160.972 133.386L160.972 124.929C160.972 123.023 162.517 121.478 164.423 121.478Z" fill="black"/>
<path d="M174.305 114.156L174.259 114.129C174.161 114.074 174.031 114.008 173.869 113.933C173.366 113.7 172.713 113.461 171.898 113.233C170.557 112.857 168.94 112.557 167.024 112.366C164.341 112.099 162.261 112.292 160.728 112.76C160.387 112.864 160.112 112.971 159.898 113.073L159.812 113.115L159.743 113.152L159.762 113.139C158.966 113.663 157.896 113.442 157.372 112.646C156.849 111.85 157.069 110.781 157.865 110.257C157.987 110.177 158.17 110.073 158.417 109.956C158.784 109.782 159.218 109.613 159.721 109.46C161.697 108.857 164.236 108.62 167.367 108.933C169.478 109.143 171.292 109.479 172.829 109.91C173.819 110.187 174.644 110.49 175.315 110.8L175.495 110.885C175.839 111.051 176.088 111.194 176.246 111.302C177.033 111.84 177.236 112.913 176.699 113.7C176.175 114.467 175.143 114.679 174.362 114.192L174.305 114.156Z" fill="#23180D"/>
<path d="M144.485 133.03L149.33 133.68L149.293 133.947C149.197 134.604 149.085 135.136 148.776 136.422L148.389 138.017C148.335 138.246 148.288 138.446 148.243 138.644C147.784 140.658 147.65 141.956 147.828 142.711L147.845 142.781C147.929 143.099 148.043 143.167 148.751 143.174L148.906 143.175V148.063C145.796 148.063 143.697 146.506 143.069 143.828C142.677 142.161 142.85 140.356 143.434 137.746L143.547 137.255C143.579 137.117 143.612 136.975 143.649 136.821L144.114 134.897C144.328 133.989 144.407 133.589 144.473 133.114L144.485 133.03Z" fill="#EBBAAA"/>
<path d="M142.624 132.485C142.624 140.592 136.202 147.11 128.346 147.11C120.489 147.11 114.067 140.592 114.067 132.485C114.067 124.379 120.489 117.861 128.346 117.861C136.202 117.861 142.624 124.379 142.624 132.485Z" fill="white" fill-opacity="0.2"/>
<path d="M181.574 132.485C181.574 140.592 175.152 147.11 167.296 147.11C159.439 147.11 153.017 140.592 153.017 132.485C153.017 124.379 159.439 117.861 167.296 117.861C175.152 117.861 181.574 124.379 181.574 132.485Z" fill="white" fill-opacity="0.2"/>
<path fill-rule="evenodd" clip-rule="evenodd" d="M112.56 131.707C112.56 122.834 119.599 115.646 128.276 115.646C136.953 115.646 143.992 122.834 143.992 131.707C143.992 140.581 136.953 147.77 128.276 147.77C119.598 147.77 112.56 140.581 112.56 131.707ZM141.116 131.707C141.116 124.409 135.351 118.521 128.275 118.521C121.2 118.521 115.435 124.409 115.435 131.707C115.435 139.006 121.2 144.894 128.275 144.894C135.351 144.894 141.116 139.006 141.116 131.707Z" fill="#A8AEB9"/>
<path fill-rule="evenodd" clip-rule="evenodd" d="M151.58 132.485C151.58 123.612 158.618 116.423 167.296 116.423C175.973 116.423 183.012 123.612 183.012 132.485C183.012 141.358 175.973 148.547 167.296 148.547C158.618 148.547 151.58 141.359 151.58 132.485ZM180.136 132.485C180.136 125.187 174.371 119.299 167.296 119.299C160.22 119.299 154.455 125.187 154.455 132.485C154.455 139.783 160.22 145.671 167.296 145.671C174.371 145.671 180.136 139.783 180.136 132.485Z" fill="#A8AEB9"/>
<path d="M142.531 130.223L153.09 130.317C153.884 130.324 154.522 130.973 154.515 131.767C154.508 132.54 153.893 133.165 153.128 133.191L153.064 133.192L142.505 133.098C141.711 133.091 141.073 132.442 141.081 131.648C141.087 130.875 141.702 130.25 142.467 130.224L142.531 130.223Z" fill="#A8AEB9"/>
</g>
<rect x="14.7883" y="15" width="262.474" height="262.474" rx="131.237" stroke="white" stroke-width="10.5651"/>
</g>
<defs>
<filter id="filter0_d_77:894" x="0.449966" y="0.661697" width="297.187" height="297.187" filterUnits="userSpaceOnUse" color-interpolation-filters="sRGB">
<feFlood flood-opacity="0" result="BackgroundImageFix"/>
<feColorMatrix in="SourceAlpha" type="matrix" values="0 0 0 0 0 0 0 0 0 0 0 0 0 0 0 0 0 0 127 0" result="hardAlpha"/>
<feMorphology radius="3.01859" operator="erode" in="SourceAlpha" result="effect1_dropShadow_77:894"/>
<feOffset dx="3.01859" dy="3.01859"/>
<feGaussianBlur stdDeviation="7.54648"/>
<feComposite in2="hardAlpha" operator="out"/>
<feColorMatrix type="matrix" values="0 0 0 0 0 0 0 0 0 0 0 0 0 0 0 0 0 0 0.25 0"/>
<feBlend mode="normal" in2="BackgroundImageFix" result="effect1_dropShadow_77:894"/>
<feBlend mode="normal" in="SourceGraphic" in2="effect1_dropShadow_77:894" result="shape"/>
</filter>
<clipPath id="clip0_77:894">
<rect x="14.7883" y="15" width="262.474" height="262.474" rx="131.237" fill="white"/>
</clipPath>
</defs>
</svg>