<svg width="114" height="27" viewBox="0 0 114 27" fill="none" xmlns="http://www.w3.org/2000/svg">
<path d="M0.657355 7.53093C0.657355 6.73495 0.809396 5.98816 1.11348 5.29056C1.41756 4.59296 1.82897 3.9848 2.3477 3.46607C2.87537 2.93839 3.48801 2.52252 4.18561 2.21843C4.88321 1.91435 5.63 1.76231 6.42598 1.76231H15.2533V5.61253H6.42598C6.15767 5.61253 5.90725 5.66172 5.67472 5.7601C5.44218 5.85848 5.23648 5.99711 5.05761 6.17598C4.88768 6.34591 4.75353 6.54714 4.65515 6.77967C4.55677 7.0122 4.50758 7.26263 4.50758 7.53093C4.50758 7.79924 4.55677 8.05413 4.65515 8.29561C4.75353 8.52815 4.88768 8.73385 5.05761 8.91272C5.23648 9.08265 5.44218 9.2168 5.67472 9.31518C5.90725 9.41356 6.15767 9.46275 6.42598 9.46275H10.2762C11.0722 9.46275 11.819 9.61479 12.5166 9.91888C13.2231 10.214 13.8358 10.6254 14.3545 11.1531C14.8822 11.6718 15.2936 12.2845 15.5887 12.991C15.8928 13.6886 16.0448 14.4354 16.0448 15.2314C16.0448 16.0274 15.8928 16.7741 15.5887 17.4717C15.2936 18.1693 14.8822 18.782 14.3545 19.3097C13.8358 19.8284 13.2231 20.2398 12.5166 20.5439C11.819 20.848 11.0722 21 10.2762 21H1.73059V17.1498H10.2762C10.5445 17.1498 10.7949 17.1006 11.0275 17.0022C11.26 16.9038 11.4612 16.7697 11.6312 16.5997C11.81 16.4209 11.9487 16.2152 12.047 15.9826C12.1454 15.7501 12.1946 15.4997 12.1946 15.2314C12.1946 14.9631 12.1454 14.7126 12.047 14.4801C11.9487 14.2476 11.81 14.0463 11.6312 13.8764C11.4612 13.6975 11.26 13.5589 11.0275 13.4605C10.7949 13.3622 10.5445 13.313 10.2762 13.313H6.42598C5.63 13.313 4.88321 13.1609 4.18561 12.8568C3.48801 12.5528 2.87537 12.1414 2.3477 11.6226C1.82897 11.095 1.41756 10.4823 1.11348 9.78472C0.809396 9.07818 0.657355 8.32691 0.657355 7.53093ZM25.1539 21C24.2685 21 23.4367 20.8345 22.6586 20.5036C21.8805 20.1638 21.1963 19.7032 20.6061 19.1218C20.0247 18.5316 19.5641 17.8474 19.2243 17.0693C18.8934 16.2912 18.7279 15.4594 18.7279 14.574V10.3079H16.9437V6.65893H18.7279V0.917139H22.3769V6.65893H27.9309V10.3079H22.3769V14.574C22.3769 14.9586 22.4484 15.3208 22.5915 15.6607C22.7346 15.9916 22.9314 16.2822 23.1818 16.5327C23.4322 16.7831 23.7274 16.9843 24.0672 17.1364C24.4071 17.2795 24.7693 17.351 25.1539 17.351H27.9309V21H25.1539ZM40.5548 19.3231C40.2596 19.5914 39.9421 19.8463 39.6023 20.0878C39.2714 20.3203 38.9226 20.526 38.5559 20.7049C38.1892 20.8748 37.8091 21.0089 37.4156 21.1073C37.031 21.2146 36.6375 21.2683 36.235 21.2683C35.3496 21.2683 34.5178 21.1118 33.7397 20.7988C32.9616 20.4857 32.2775 20.043 31.6872 19.4706C31.1059 18.8893 30.6453 18.1872 30.3054 17.3644C29.9745 16.5327 29.809 15.6025 29.809 14.574V6.6321H33.458V14.574C33.458 15.057 33.5296 15.4907 33.6727 15.8753C33.8247 16.2509 34.0259 16.5684 34.2764 16.8278C34.5268 17.0872 34.8174 17.2839 35.1484 17.4181C35.4882 17.5522 35.8504 17.6193 36.235 17.6193C36.6106 17.6193 36.9639 17.5344 37.2948 17.3644C37.6347 17.1856 37.9298 16.953 38.1802 16.6668C38.4307 16.3806 38.6274 16.0587 38.7705 15.7009C38.9136 15.3342 38.9852 14.9586 38.9852 14.574V6.6321H42.6476V21H41.7622L40.5548 19.3231ZM59.3363 21H58.4509L57.0289 19.0279C56.6801 19.341 56.3089 19.6361 55.9154 19.9134C55.5308 20.1817 55.1239 20.4187 54.6946 20.6244C54.2653 20.8211 53.8226 20.9776 53.3665 21.0939C52.9193 21.2102 52.4632 21.2683 51.9981 21.2683C50.9875 21.2683 50.035 21.0805 49.1406 20.7049C48.2552 20.3203 47.4771 19.7926 46.8063 19.1218C46.1445 18.4421 45.6213 17.6417 45.2367 16.7205C44.8522 15.7904 44.6599 14.7797 44.6599 13.6886C44.6599 12.6064 44.8522 11.6003 45.2367 10.6701C45.6213 9.74 46.1445 8.93508 46.8063 8.25537C47.4771 7.57565 48.2552 7.04351 49.1406 6.65893C50.035 6.27436 50.9875 6.08207 51.9981 6.08207C52.3201 6.08207 52.651 6.1089 52.9908 6.16256C53.3396 6.21622 53.675 6.30566 53.997 6.43087C54.3279 6.54714 54.6365 6.70365 54.9227 6.90041C55.2089 7.09717 55.4503 7.33865 55.6471 7.62484V0.917139H59.3363V21ZM55.6471 13.6886C55.6471 13.1878 55.5487 12.7048 55.352 12.2397C55.1641 11.7657 54.9048 11.3499 54.5739 10.9921C54.243 10.6254 53.8539 10.3348 53.4067 10.1201C52.9685 9.89652 52.4989 9.78472 51.9981 9.78472C51.4973 9.78472 51.0233 9.87416 50.5761 10.053C50.1378 10.2319 49.7533 10.4913 49.4223 10.8311C49.1004 11.162 48.8455 11.569 48.6577 12.0519C48.4699 12.5349 48.3759 13.0804 48.3759 13.6886C48.3759 14.2163 48.4699 14.7171 48.6577 15.1911C48.8455 15.6651 49.1004 16.081 49.4223 16.4388C49.7533 16.7965 50.1378 17.0782 50.5761 17.2839C51.0233 17.4896 51.4973 17.5925 51.9981 17.5925C52.4989 17.5925 52.9685 17.4852 53.4067 17.2705C53.8539 17.0469 54.243 16.7563 54.5739 16.3985C54.9048 16.0318 55.1641 15.616 55.352 15.1509C55.5487 14.6769 55.6471 14.1894 55.6471 13.6886ZM65.6013 26.4735V22.7842L67.6405 22.8111C67.9982 22.8111 68.3425 22.7529 68.6735 22.6367C69.0044 22.5204 69.3084 22.3594 69.5857 22.1537C69.8719 21.948 70.1223 21.7021 70.337 21.4159C70.5516 21.1386 70.726 20.8345 70.8602 20.5036C70.4577 20.6736 70.0463 20.8435 69.6259 21.0134C69.2145 21.1833 68.7987 21.2683 68.3783 21.2683C67.4929 21.2683 66.6611 21.1118 65.883 20.7988C65.105 20.4857 64.4208 20.043 63.8305 19.4706C63.2492 18.8893 62.7886 18.1872 62.4487 17.3644C62.1178 16.5327 61.9523 15.6025 61.9523 14.574V6.6321H65.6013V14.574C65.6013 15.0838 65.6729 15.531 65.816 15.9156C65.968 16.2912 66.1692 16.6087 66.4197 16.8681C66.6701 17.1185 66.9608 17.3063 67.2917 17.4315C67.6315 17.5567 67.9937 17.6193 68.3783 17.6193C68.7539 17.6193 69.1072 17.5344 69.4381 17.3644C69.778 17.1856 70.0731 16.953 70.3235 16.6668C70.574 16.3806 70.7707 16.0587 70.9138 15.7009C71.0569 15.3342 71.1285 14.9586 71.1285 14.574V6.6321H74.8177V19.1889C74.8088 20.1995 74.612 21.1476 74.2274 22.033C73.8429 22.9184 73.3152 23.692 72.6444 24.3539C71.9826 25.0157 71.209 25.5389 70.3235 25.9235C69.4381 26.308 68.4901 26.5003 67.4795 26.5003L65.6013 26.4735ZM93.3712 19.0279C92.4769 19.7971 91.4752 20.3874 90.3662 20.7988C89.2572 21.2102 88.1079 21.4159 86.9184 21.4159C86.0062 21.4159 85.1252 21.2951 84.2756 21.0537C83.4349 20.8211 82.6434 20.4902 81.901 20.0609C81.1677 19.6227 80.4969 19.0995 79.8887 18.4913C79.2806 17.8832 78.7574 17.2124 78.3191 16.479C77.8898 15.7367 77.5545 14.9452 77.313 14.1045C77.0804 13.2548 76.9642 12.3739 76.9642 11.4616C76.9642 10.5494 77.0804 9.66845 77.313 8.81881C77.5545 7.96917 77.8898 7.17766 78.3191 6.44429C78.7574 5.70197 79.2806 5.02672 79.8887 4.41856C80.4969 3.81039 81.1677 3.29167 81.901 2.86237C82.6434 2.42414 83.4349 2.08875 84.2756 1.85622C85.1252 1.61474 86.0062 1.494 86.9184 1.494C88.1079 1.494 89.2572 1.6997 90.3662 2.11111C91.4752 2.51357 92.4769 3.10385 93.3712 3.88194L91.3321 7.23579C90.7686 6.62763 90.1023 6.16256 89.3332 5.84059C88.564 5.50968 87.7591 5.34422 86.9184 5.34422C86.0688 5.34422 85.2728 5.50521 84.5305 5.82718C83.7881 6.14915 83.1397 6.58738 82.5852 7.14189C82.0307 7.68745 81.5925 8.33586 81.2705 9.08712C80.9485 9.82944 80.7876 10.6209 80.7876 11.4616C80.7876 12.3023 80.9485 13.0939 81.2705 13.8362C81.5925 14.5695 82.0307 15.2135 82.5852 15.768C83.1397 16.3225 83.7881 16.7607 84.5305 17.0827C85.2728 17.4047 86.0688 17.5657 86.9184 17.5657C87.7591 17.5657 88.564 17.4047 89.3332 17.0827C90.1023 16.7518 90.7686 16.2822 91.3321 15.6741L93.3712 19.0279ZM113.897 11.4616C113.897 12.3739 113.776 13.2548 113.535 14.1045C113.302 14.9452 112.971 15.7367 112.542 16.479C112.113 17.2124 111.594 17.8832 110.986 18.4913C110.377 19.0995 109.707 19.6227 108.973 20.0609C108.24 20.4902 107.448 20.8211 106.599 21.0537C105.749 21.2951 104.868 21.4159 103.956 21.4159C103.044 21.4159 102.163 21.2951 101.313 21.0537C100.472 20.8211 99.6809 20.4902 98.9386 20.0609C98.2052 19.6227 97.5345 19.0995 96.9263 18.4913C96.3181 17.8832 95.7949 17.2124 95.3567 16.479C94.9274 15.7367 94.592 14.9452 94.3505 14.1045C94.118 13.2548 94.0017 12.3739 94.0017 11.4616C94.0017 10.5494 94.118 9.66845 94.3505 8.81881C94.592 7.96917 94.9274 7.17766 95.3567 6.44429C95.7949 5.71091 96.3181 5.04014 96.9263 4.43198C97.5345 3.82381 98.2052 3.30508 98.9386 2.87579C99.6809 2.4465 100.472 2.11558 101.313 1.88305C102.163 1.64157 103.044 1.52083 103.956 1.52083C104.868 1.52083 105.749 1.64157 106.599 1.88305C107.448 2.11558 108.24 2.4465 108.973 2.87579C109.707 3.30508 110.377 3.82381 110.986 4.43198C111.594 5.04014 112.113 5.71091 112.542 6.44429C112.971 7.17766 113.302 7.96917 113.535 8.81881C113.776 9.66845 113.897 10.5494 113.897 11.4616ZM110.073 11.4616C110.073 10.6209 109.912 9.82944 109.59 9.08712C109.268 8.33586 108.83 7.68745 108.276 7.14189C107.73 6.58738 107.082 6.14915 106.33 5.82718C105.588 5.50521 104.797 5.34422 103.956 5.34422C103.106 5.34422 102.31 5.50521 101.568 5.82718C100.826 6.14915 100.177 6.58738 99.6228 7.14189C99.0683 7.68745 98.6301 8.33586 98.3081 9.08712C97.9861 9.82944 97.8251 10.6209 97.8251 11.4616C97.8251 12.3023 97.9861 13.0939 98.3081 13.8362C98.6301 14.5695 99.0683 15.2135 99.6228 15.768C100.177 16.3225 100.826 16.7607 101.568 17.0827C102.31 17.4047 103.106 17.5657 103.956 17.5657C104.797 17.5657 105.588 17.4047 106.33 17.0827C107.082 16.7607 107.73 16.3225 108.276 15.768C108.83 15.2135 109.268 14.5695 109.59 13.8362C109.912 13.0939 110.073 12.3023 110.073 11.4616Z" fill="#4BB4AD"/>
</svg>